<svg xmlns="http://www.w3.org/2000/svg" viewBox="0 0 240 320" fill="none">
  <!-- Folhas verdes -->
  <g>
    <path d="M120 10c-6 16-14 30-26 42 10-1 19-5 26-12 7 7 16 11 26 12-12-12-20-26-26-42z" fill="#4A9D2A"/>
    <path d="M84 34c-6 22-26 36-44 42 18 6 36 2 50-12-2 14-10 24-22 30 18-2 32-14 38-28-2 12 2 24 8 32-4-20 0-40 12-58l-42-6z" fill="#5BB132"/>
    <path d="M156 34c6 22 26 36 44 42-18 6-36 2-50-12 2 14 10 24 22 30-18-2-32-14-38-28 2 12-2 24-8 32 4-20 0-40-12-58l42-6z" fill="#5BB132"/>
    <path d="M120 24c-2 18-2 36 4 54 6-18 6-36 4-54-2 6-6 6-8 0z" fill="#4A9D2A"/>
    <!-- Cabelo preto extra (estilo do sticker) -->
    <path d="M70 60c-10-4-20-14-24-30 4 20 4 38 16 50-4-2-12-2-18-8 8 12 16 22 30 26z" fill="#0A0A0A"/>
    <path d="M170 60c10-4 20-14 24-30-4 20-4 38-16 50 4-2 12-2 18-8-8 12-16 22-30 26z" fill="#0A0A0A"/>
  </g>

  <!-- Corpo amarelo -->
  <ellipse cx="120" cy="200" rx="84" ry="100" fill="#FFC727"/>

  <!-- Escamas/casca (pretas) -->
  <g stroke="#0A0A0A" stroke-width="2.4" fill="none" stroke-linecap="round" stroke-linejoin="round">
    <path d="M44 140 L120 196 L196 140"/>
    <path d="M40 172 L120 232 L200 172"/>
    <path d="M40 204 L120 264 L200 204"/>
    <path d="M50 236 L120 290 L190 236"/>
    <path d="M58 110 L120 162 L182 110"/>
  </g>

  <!-- Óculos escuros -->
  <g fill="#0A0A0A">
    <rect x="40" y="146" width="70" height="38" rx="14"/>
    <rect x="130" y="146" width="70" height="38" rx="14"/>
    <rect x="104" y="158" width="32" height="6"/>
  </g>

  <!-- Sorriso + lingua -->
  <path d="M86 214 Q120 248 154 214" stroke="#0A0A0A" stroke-width="4" fill="#0A0A0A" stroke-linecap="round"/>
  <path d="M104 232 Q120 252 136 232 Q128 246 120 246 Q112 246 104 232z" fill="#E84A8A"/>

  <!-- Contorno geral sticker -->
  <g fill="none" stroke="#0A0A0A" stroke-width="3" stroke-linejoin="round">
    <ellipse cx="120" cy="200" rx="84" ry="100"/>
  </g>
</svg>
