<svg xmlns="http://www.w3.org/2000/svg" viewBox="0 0 200 280" fill="none">
  <!-- Folhas -->
  <g fill="currentColor">
    <path d="M100 10c-4 14-12 28-22 38 8-2 16-6 22-12 6 6 14 10 22 12-10-10-18-24-22-38z"/>
    <path d="M70 30c-6 18-22 32-40 38 16 4 32 0 44-12-2 12-8 22-18 28 16-2 30-12 36-26-2 10 0 22 6 30-4-18-2-38 8-54l-36-4z"/>
    <path d="M130 30c6 18 22 32 40 38-16 4-32 0-44-12 2 12 8 22 18 28-16-2-30-12-36-26 2 10 0 22-6 30 4-18 2-38-8-54l36-4z"/>
    <path d="M100 20c-2 16-2 32 4 48 6-16 6-32 4-48-2 6-4 6-8 0z"/>
  </g>
  <!-- Corpo principal -->
  <ellipse cx="100" cy="170" rx="74" ry="92" fill="currentColor"/>
  <!-- Escamas (linhas brancas para cortar o corpo, simulando textura) -->
  <g stroke="#FBE7B4" stroke-width="2.2" fill="none" stroke-linecap="round">
    <!-- Diagonais que descem da direita -->
    <path d="M30 110 L100 170 L170 110"/>
    <path d="M30 140 L100 200 L170 140"/>
    <path d="M30 170 L100 230 L170 170"/>
    <path d="M40 200 L100 252 L160 200"/>
    <!-- Topo -->
    <path d="M40 86 L100 140 L160 86"/>
  </g>
</svg>
